<?xml version="1.0" encoding="utf-8"?>
<!-- Generator: Adobe Illustrator 16.0.4, SVG Export Plug-In . SVG Version: 6.00 Build 0)  -->
<!DOCTYPE svg PUBLIC "-//W3C//DTD SVG 1.1//EN" "http://www.w3.org/Graphics/SVG/1.1/DTD/svg11.dtd">
<svg version="1.1" xmlns="http://www.w3.org/2000/svg" xmlns:xlink="http://www.w3.org/1999/xlink" x="0px" y="0px"
	 width="383.055px" height="71.921px" viewBox="0 0 383.055 71.921" enable-background="new 0 0 383.055 71.921"
	 xml:space="preserve">
<g id="Layer_1">
	<g>
		<g>
			<path fill="#8D1E5D" d="M5.274,49.356l0.631-0.135c2.538-0.541,3.437-1.005,3.746-1.233c0.544-0.401,0.946-0.87,1.228-1.435
				c0.479-0.942,1.56-3.975,4.007-13.101l5.037-19.719c-2.419,0.225-4.583,0.862-6.449,1.902c-2.197,1.225-3.969,2.89-5.266,4.95
				c-1.286,2.042-1.938,4.128-1.938,6.2c0,0.83,0.109,1.697,0.323,2.576c0.072,0.333,0.281,0.94,0.894,2.085
				c0.786,1.437,1.138,2.387,1.138,3.074c0,0.772-0.319,1.471-0.924,2.022c-0.586,0.535-1.333,0.806-2.221,0.806
				c-0.901,0-2.179-0.341-3.145-1.965C1.438,33.904,1,31.906,1,29.281c0-4.95,1.947-9.555,5.787-13.688
				c3.86-4.132,9.003-6.226,15.287-6.226h13.5c1.463,0,3.096-0.093,4.854-0.276c0.35-0.031,1.197-0.178,3.341-0.714l1.607-0.401
				l-0.393,1.608c-1.186,4.861-1.903,7.997-2.131,9.319l-0.143,0.831h-3.964l0.243-1.198c0.502-2.484,0.578-3.321,0.578-3.599
				c0-0.565-0.203-0.779-0.379-0.902c-0.166-0.115-0.739-0.383-2.483-0.383l-2.231,0.035l-0.801-0.036l-6.207,0.001
				c-0.198,0.73-0.508,1.857-0.93,3.38c-1.086,3.895-1.956,7.221-2.593,9.913h5.59c2.085,0,2.595-0.27,2.676-0.324
				c0.042-0.028,0.425-0.322,0.813-1.903l0.187-0.761h3.958l-0.305,1.239c-0.717,2.915-1.351,6.001-1.883,9.173l-0.14,0.834h-3.91
				l0.137-1.122c0.215-1.759,0.239-2.148,0.239-2.234c0-0.111,0-0.226-0.291-0.372c-0.025-0.009-0.426-0.151-2.254-0.211l-5.866,0
				c-0.658,3.044-1.504,6.346-2.519,9.827c-0.911,3.125-1.729,5.695-2.437,7.666c1.334,0.176,2.558,0.266,3.649,0.266
				c0.904,0,1.811-0.067,2.693-0.2l1.557-0.234L24.6,52.743l-0.665,0.068c-0.711,0.073-1.385,0.11-2.001,0.11
				c-0.54,0-2.101-0.078-4.912-0.247c-1.591-0.116-2.951-0.174-4.053-0.174c-2.209,0-4.603,0.208-7.116,0.619l-1.452,0.237
				L5.274,49.356z"/>
			<path fill="#FFCCFF" d="M44.012,9.348c-1.195,4.899-1.911,8.028-2.145,9.387h-1.898c0.398-1.969,0.598-3.234,0.598-3.797
				c0-0.773-0.27-1.348-0.808-1.723c-0.538-0.375-1.557-0.562-3.055-0.562l-2.247,0.035l-0.737-0.035h-7.022
				c-0.141,0.54-0.517,1.911-1.126,4.113c-1.268,4.547-2.23,8.274-2.887,11.18h6.848c1.662,0,2.739-0.164,3.231-0.492
				c0.491-0.328,0.901-1.16,1.229-2.496h1.898c-0.727,2.953-1.359,6.035-1.898,9.246h-1.934c0.164-1.336,0.246-2.121,0.246-2.355
				c0-0.562-0.281-0.984-0.843-1.266c-0.328-0.164-1.218-0.269-2.669-0.316h-6.708c-0.679,3.258-1.569,6.773-2.669,10.547
				c-1.101,3.774-2.048,6.692-2.844,8.754c1.871,0.305,3.543,0.457,5.017,0.457c0.959,0,1.906-0.07,2.842-0.211l-0.598,2.004
				c-0.68,0.07-1.313,0.105-1.898,0.105c-0.516,0-2.133-0.083-4.852-0.246c-1.617-0.118-2.988-0.176-4.113-0.176
				c-2.273,0-4.699,0.211-7.277,0.633l0.422-1.934c2.086-0.445,3.463-0.914,4.131-1.406s1.178-1.09,1.529-1.793
				c0.726-1.429,2.086-5.859,4.078-13.289l5.379-21.059c-3.141,0.094-5.889,0.797-8.244,2.109c-2.355,1.313-4.231,3.076-5.625,5.291
				c-1.395,2.215-2.092,4.459-2.092,6.732c0,0.914,0.117,1.852,0.352,2.812c0.117,0.54,0.445,1.313,0.984,2.32
				c0.68,1.243,1.02,2.109,1.02,2.602s-0.199,0.92-0.598,1.283c-0.399,0.364-0.914,0.545-1.547,0.545
				c-0.938,0-1.7-0.492-2.285-1.477C2.398,33.559,2,31.695,2,29.281c0-4.711,1.84-9.047,5.52-13.008
				c3.679-3.938,8.531-5.906,14.555-5.906h13.5c1.5,0,3.152-0.093,4.957-0.281C41.07,10.039,42.23,9.793,44.012,9.348 M46.74,6.604
				l-3.213,0.803c-2.273,0.568-2.973,0.669-3.169,0.686c-1.757,0.183-3.355,0.274-4.784,0.274h-13.5
				c-6.572,0-11.96,2.201-16.016,6.541C2.037,19.237,0,24.071,0,29.281c0,2.813,0.486,4.981,1.486,6.628
				c0.932,1.567,2.354,2.438,3.995,2.438c1.128,0,2.129-0.369,2.895-1.067c0.818-0.746,1.25-1.701,1.25-2.761
				c0-0.875-0.378-1.94-1.265-3.562c-0.602-1.124-0.75-1.623-0.785-1.785L7.57,29.148l-0.006-0.025
				c-0.195-0.801-0.294-1.588-0.294-2.338c0-1.906,0.583-3.76,1.784-5.667c1.207-1.917,2.857-3.467,4.906-4.609
				c1.371-0.764,2.919-1.296,4.628-1.591l-4.674,18.298c-2.418,9.02-3.469,11.984-3.923,12.878
				c-0.216,0.432-0.519,0.784-0.933,1.088c-0.109,0.081-0.786,0.511-3.361,1.061l-1.262,0.269l-0.275,1.261l-0.422,1.934
				L3.11,54.582l2.904-0.475c2.46-0.403,4.8-0.607,6.955-0.607c1.078,0,2.414,0.058,3.968,0.171
				c3.745,0.226,4.644,0.251,4.997,0.251c0.651,0,1.359-0.039,2.104-0.115l1.329-0.138l0.382-1.28l0.598-2.004l0.9-3.018
				l-3.114,0.468c-0.833,0.125-1.689,0.189-2.544,0.189c-0.707,0-1.473-0.039-2.292-0.117c0.613-1.797,1.296-3.984,2.04-6.534
				c0.935-3.206,1.727-6.261,2.363-9.107h5.061c0.732,0.024,1.203,0.062,1.5,0.094c-0.033,0.316-0.089,0.816-0.186,1.6l-0.274,2.243
				h2.26h1.934h1.692l0.28-1.669c0.528-3.147,1.157-6.208,1.868-9.099l0.61-2.478h-2.552h-1.898h-1.568L32.05,24.48
				c-0.188,0.768-0.359,1.143-0.449,1.304c-0.234,0.059-0.82,0.161-2.069,0.161h-4.32c0.598-2.441,1.364-5.336,2.286-8.643
				c0.3-1.083,0.543-1.967,0.731-2.65h5.443l0.69,0.033l0.063,0.003l0.063-0.001l2.247-0.035c1.138,0,1.647,0.128,1.828,0.189
				c0.002,0.025,0.004,0.057,0.004,0.096c0,0.151-0.04,0.842-0.558,3.4l-0.485,2.397h2.445h1.898h1.685l0.286-1.661
				c0.224-1.301,0.936-4.414,2.116-9.252L46.74,6.604L46.74,6.604z"/>
		</g>
		<g>
			<path fill="#8D1E5D" d="M54.326,53.519c-0.867,0-1.557-0.231-2.05-0.688c-0.355-0.327-0.778-0.934-0.778-1.964
				c0-0.458,0.106-1.025,0.326-1.736l0.25-0.851c-1.395,1.264-2.922,2.413-4.568,3.436c-1.861,1.172-3.625,1.768-5.239,1.768
				c-1.684,0-3.005-0.618-3.927-1.838c-1.113-1.457-1.679-3.364-1.679-5.666c0-2.611,0.696-5.536,2.069-8.695
				c1.36-3.132,3.21-6.014,5.499-8.566c2.305-2.571,4.776-4.496,7.346-5.72c2.029-0.952,4.632-1.433,7.743-1.433
				c0.576,0,1.167,0.027,1.763,0.081l0.739-1.2l4.383-0.93l-3.114,10.506c-1.042,3.497-2.041,7.584-2.967,12.149
				c-0.623,3.03-0.753,4.202-0.753,4.653c0,0.021,0,0.042,0.001,0.06c0.179-0.051,0.53-0.19,1.157-0.565
				c1.381-0.824,2.728-1.865,4.003-3.097l0.78-0.752l2.415,2.942l-0.701,0.64c-2.731,2.492-4.445,3.969-5.24,4.515
				c-1.561,1.073-3.08,1.881-4.515,2.401C56.276,53.333,55.285,53.519,54.326,53.519z M54.889,27.328
				c-1.908,0-3.519,0.505-4.925,1.544c-1.422,1.051-2.788,3.023-4.059,5.862c-1.283,2.867-1.934,5.764-1.934,8.609
				c0,1.696,0.327,2.479,0.602,2.836c0.352,0.459,0.757,0.664,1.316,0.664c1.346,0,2.866-0.79,4.517-2.347
				c1.705-1.608,2.983-3.986,3.797-7.069l2.64-9.923C56.095,27.387,55.441,27.328,54.889,27.328z"/>
			<path fill="#FFCCFF" d="M64.767,20.844l-2.637,8.895c-1.055,3.539-2.051,7.617-2.988,12.234
				c-0.516,2.508-0.773,4.125-0.773,4.852c0,0.727,0.293,1.09,0.879,1.09c0.375,0,0.972-0.246,1.793-0.738
				c1.453-0.867,2.848-1.945,4.184-3.234l1.125,1.371c-2.672,2.438-4.383,3.915-5.133,4.43c-1.5,1.032-2.93,1.793-4.289,2.285
				c-0.891,0.328-1.758,0.492-2.602,0.492c-0.61,0-1.067-0.14-1.371-0.421c-0.305-0.281-0.457-0.691-0.457-1.23
				c0-0.352,0.093-0.832,0.281-1.441l1.406-4.781c-2.016,2.414-4.418,4.488-7.207,6.223c-1.711,1.078-3.282,1.617-4.711,1.617
				c-1.359,0-2.403-0.48-3.129-1.441c-0.984-1.289-1.477-2.976-1.477-5.062c0-2.484,0.662-5.25,1.986-8.297
				c1.324-3.046,3.099-5.812,5.326-8.297c2.227-2.484,4.57-4.312,7.031-5.484c1.898-0.891,4.336-1.336,7.312-1.336
				c0.75,0,1.512,0.047,2.285,0.141l0.844-1.371L64.767,20.844 M45.889,47.844c1.617,0,3.352-0.873,5.203-2.619
				c1.851-1.746,3.211-4.259,4.078-7.541l2.918-10.969c-1.266-0.258-2.333-0.387-3.199-0.387c-2.109,0-3.95,0.58-5.52,1.74
				c-1.57,1.16-3.029,3.247-4.377,6.258c-1.348,3.012-2.021,6.018-2.021,9.018c0,1.594,0.269,2.742,0.809,3.445
				C44.318,47.492,45.021,47.844,45.889,47.844 M67.64,18.19l-3.288,0.697l-2.32,0.492l-0.839,0.178l-0.449,0.73l-0.195,0.316
				c-0.415-0.025-0.826-0.038-1.231-0.038c-3.258,0-6.004,0.513-8.162,1.525c-2.7,1.286-5.277,3.29-7.671,5.96
				c-2.359,2.632-4.268,5.604-5.671,8.835c-1.428,3.285-2.152,6.345-2.152,9.094c0,2.525,0.635,4.637,1.887,6.277
				c1.099,1.454,2.732,2.227,4.718,2.227c1.805,0,3.749-0.647,5.777-1.925c0.849-0.527,1.667-1.088,2.454-1.681
				c0.003,1.385,0.6,2.227,1.101,2.688c0.683,0.632,1.601,0.952,2.728,0.952c1.077,0,2.185-0.207,3.292-0.615
				c1.505-0.545,3.101-1.392,4.731-2.514c0.531-0.365,1.664-1.239,5.348-4.6l1.402-1.279l-1.204-1.467l-1.125-1.371l-1.375-1.676
				l-1.56,1.505c-1.045,1.008-2.137,1.882-3.253,2.604c0.109-0.654,0.273-1.538,0.519-2.73c0.921-4.541,1.912-8.599,2.945-12.066
				l2.638-8.897L67.64,18.19L67.64,18.19z M45.889,45.844c-0.217,0-0.344-0.039-0.522-0.271c-0.067-0.087-0.396-0.599-0.396-2.229
				c0-2.704,0.622-5.462,1.847-8.201c1.199-2.68,2.458-4.519,3.74-5.466c1.228-0.908,2.645-1.349,4.331-1.349
				c0.213,0,0.444,0.01,0.692,0.03l-2.344,8.812c-0.767,2.902-1.95,5.122-3.518,6.6C48.281,45.126,46.956,45.844,45.889,45.844
				L45.889,45.844z"/>
		</g>
		<g>
			<path fill="#8D1E5D" d="M74.15,53.484c-2.394,0-4.174-0.889-5.291-2.642c-1.025-1.608-1.545-3.646-1.545-6.057
				c0-3.843,1.029-7.838,3.06-11.875c2.03-4.036,4.543-7.183,7.47-9.354c2.372-1.741,5.078-2.623,8.049-2.623
				c1.97,0,3.452,0.386,4.53,1.179c1.441,1.062,1.743,2.324,1.743,3.196c0,1.003-0.338,1.841-1.005,2.491
				c-0.661,0.644-1.558,0.97-2.667,0.97c-1.011,0-2.21-0.413-3.667-1.261c-1.47-0.876-2.353-1.06-2.836-1.06
				c-0.885,0-1.811,0.438-2.752,1.3c-1.007,0.922-2.01,2.82-2.982,5.643c-0.99,2.875-1.492,5.801-1.492,8.696
				c0,2.001,0.375,3.542,1.115,4.58c0.458,0.679,1.044,0.985,1.857,0.985c2.488,0,5.571-1.53,9.166-4.547l1.096-0.92l1.472,4.064
				l-0.569,0.447C83.088,51.264,78.263,53.484,74.15,53.484z"/>
			<path fill="#FFCCFF" d="M85.893,21.934c1.734,0,3.046,0.329,3.938,0.984c0.891,0.656,1.336,1.454,1.336,2.391
				c0,0.727-0.234,1.318-0.703,1.775c-0.469,0.457-1.125,0.686-1.969,0.686c-0.821,0-1.875-0.375-3.164-1.125
				c-1.336-0.796-2.449-1.195-3.34-1.195c-1.148,0-2.291,0.521-3.428,1.562c-1.137,1.041-2.221,3.06-3.252,6.055
				c-1.032,2.996-1.547,6.003-1.547,9.021c0,2.224,0.434,3.944,1.301,5.16c0.633,0.937,1.523,1.404,2.672,1.404
				c2.742,0,6.012-1.594,9.809-4.781l0.738,2.039c-5.578,4.383-10.289,6.574-14.133,6.574c-2.039,0-3.521-0.727-4.447-2.18
				c-0.926-1.453-1.389-3.292-1.389-5.52c0-3.703,0.984-7.511,2.953-11.426c1.969-3.914,4.359-6.914,7.172-9
				C80.642,22.742,83.127,21.934,85.893,21.934 M85.893,19.934c-3.188,0-6.094,0.947-8.637,2.813
				c-3.061,2.271-5.674,5.537-7.775,9.713c-2.101,4.178-3.167,8.324-3.167,12.325c0,2.604,0.573,4.823,1.702,6.595
				c0.902,1.416,2.699,3.104,6.134,3.104c4.345,0,9.372-2.29,15.369-7.001l1.137-0.894l-0.493-1.36l-0.738-2.039l-0.974-2.691
				l-2.192,1.84c-3.409,2.862-6.276,4.313-8.522,4.313c-0.488,0-0.753-0.137-1.015-0.524l-0.014-0.021l-0.015-0.021
				c-0.617-0.865-0.929-2.21-0.929-3.999c0-2.784,0.484-5.6,1.438-8.37c1.142-3.317,2.105-4.676,2.711-5.231
				c0.751-0.689,1.45-1.038,2.077-1.038c0.236,0,0.933,0.089,2.316,0.913c1.631,0.95,2.995,1.407,4.188,1.407
				c1.717,0,2.777-0.681,3.364-1.253c0.855-0.834,1.308-1.943,1.308-3.208c0-1.103-0.373-2.692-2.149-4
				C89.759,20.383,88.084,19.934,85.893,19.934L85.893,19.934z"/>
		</g>
		<path fill="#FFCCFF" d="M107.316,6.816c0.726,0,1.324,0.241,1.793,0.721c0.469,0.48,0.703,1.096,0.703,1.846
			c0,1.032-0.357,1.939-1.072,2.725c-0.715,0.786-1.518,1.178-2.408,1.178c-0.703,0-1.289-0.246-1.758-0.738
			c-0.469-0.492-0.703-1.137-0.703-1.934c0-1.055,0.339-1.951,1.02-2.689C105.57,7.186,106.378,6.816,107.316,6.816 M103.294,21.758
			c0.749,0,1.323,0.164,1.72,0.492c0.398,0.329,0.597,0.773,0.597,1.336c0,0.68-0.76,3.563-2.279,8.648
			c-2.478,8.32-3.716,13.336-3.716,15.047c0,0.329,0.082,0.604,0.246,0.826c0.164,0.223,0.339,0.334,0.527,0.334
			c0.75,0,2.672-1.453,5.766-4.359l1.371,1.336c-3.211,3.023-5.555,4.957-7.031,5.801s-2.684,1.266-3.621,1.266
			c-0.821,0-1.471-0.258-1.951-0.773c-0.48-0.515-0.721-1.23-0.721-2.145c0-2.93,1.758-10.09,5.273-21.48
			c0.164-0.539,0.246-1.02,0.246-1.441c0-0.469-0.211-0.703-0.633-0.703c-0.469,0-1.002,0.188-1.6,0.562
			c-0.598,0.375-1.928,1.57-3.99,3.586l-1.547-1.195c2.341-2.578,4.477-4.412,6.408-5.502
			C100.292,22.303,101.937,21.758,103.294,21.758 M107.316,4.816c-1.494,0-2.841,0.606-3.897,1.753
			c-1.013,1.099-1.548,2.498-1.548,4.044c0,1.306,0.434,2.452,1.255,3.313c0.846,0.889,1.955,1.358,3.206,1.358
			c1.013,0,2.509-0.318,3.887-1.831c1.057-1.162,1.593-2.531,1.593-4.071c0-1.269-0.439-2.39-1.271-3.242
			C109.693,5.274,108.579,4.816,107.316,4.816L107.316,4.816z M103.294,19.758c-1.724,0-3.659,0.619-5.917,1.893
			c-2.139,1.207-4.397,3.137-6.906,5.899l-1.456,1.603l1.713,1.324l1.547,1.195l1.376,1.064l1.244-1.216
			c0.855-0.836,1.518-1.464,2.028-1.936c-3.176,10.465-4.723,17.014-4.723,19.982c0,1.433,0.423,2.614,1.258,3.508
			c0.859,0.922,2.04,1.409,3.414,1.409c1.304,0,2.812-0.5,4.613-1.528c1.628-0.931,4.052-2.919,7.41-6.082l1.521-1.431l-1.496-1.458
			l-1.371-1.336l-1.37-1.335l-1.395,1.31c-1.242,1.166-2.172,1.981-2.864,2.551c0.411-2.012,1.335-5.682,3.327-12.371
			c2.179-7.296,2.362-8.584,2.362-9.219c0-1.151-0.47-2.173-1.324-2.878C105.524,20.078,104.517,19.758,103.294,19.758
			L103.294,19.758z"/>
		<g>
			<path fill="#8D1E5D" d="M125.636,53.519c-0.867,0-1.557-0.231-2.05-0.688c-0.355-0.327-0.778-0.934-0.778-1.964
				c0-0.458,0.106-1.025,0.326-1.736l0.25-0.851c-1.395,1.264-2.922,2.413-4.568,3.436c-1.861,1.172-3.625,1.768-5.239,1.768
				c-1.684,0-3.005-0.618-3.927-1.838c-1.113-1.457-1.679-3.364-1.679-5.666c0-2.611,0.696-5.536,2.069-8.695
				c1.36-3.132,3.21-6.014,5.499-8.566c2.305-2.571,4.776-4.496,7.346-5.72c2.029-0.952,4.632-1.433,7.743-1.433
				c0.576,0,1.167,0.027,1.763,0.081l0.739-1.2l4.383-0.93l-3.114,10.506c-1.042,3.497-2.041,7.584-2.967,12.149
				c-0.623,3.03-0.753,4.202-0.753,4.653c0,0.021,0,0.042,0.001,0.06c0.179-0.051,0.53-0.19,1.157-0.565
				c1.381-0.824,2.728-1.865,4.003-3.097l0.78-0.752l2.415,2.942l-0.701,0.64c-2.731,2.492-4.445,3.969-5.24,4.515
				c-1.561,1.073-3.08,1.881-4.515,2.401C127.586,53.333,126.594,53.519,125.636,53.519z M126.198,27.328
				c-1.908,0-3.519,0.505-4.925,1.544c-1.422,1.051-2.788,3.023-4.059,5.862c-1.283,2.867-1.934,5.764-1.934,8.609
				c0,1.696,0.327,2.479,0.602,2.836c0.352,0.459,0.757,0.664,1.316,0.664c1.346,0,2.866-0.79,4.517-2.347
				c1.705-1.608,2.983-3.986,3.797-7.069l2.64-9.923C127.405,27.387,126.75,27.328,126.198,27.328z"/>
			<path fill="#FFCCFF" d="M136.077,20.844l-2.637,8.895c-1.055,3.539-2.051,7.617-2.988,12.234
				c-0.516,2.508-0.773,4.125-0.773,4.852c0,0.727,0.293,1.09,0.879,1.09c0.375,0,0.972-0.246,1.793-0.738
				c1.453-0.867,2.848-1.945,4.184-3.234l1.125,1.371c-2.672,2.438-4.383,3.915-5.133,4.43c-1.5,1.032-2.93,1.793-4.289,2.285
				c-0.891,0.328-1.758,0.492-2.602,0.492c-0.61,0-1.067-0.14-1.371-0.421c-0.305-0.281-0.457-0.691-0.457-1.23
				c0-0.352,0.093-0.832,0.281-1.441l1.406-4.781c-2.016,2.414-4.418,4.488-7.207,6.223c-1.711,1.078-3.282,1.617-4.711,1.617
				c-1.359,0-2.403-0.48-3.129-1.441c-0.984-1.289-1.477-2.976-1.477-5.062c0-2.484,0.662-5.25,1.986-8.297
				c1.324-3.046,3.099-5.812,5.326-8.297c2.227-2.484,4.57-4.312,7.031-5.484c1.898-0.891,4.336-1.336,7.312-1.336
				c0.75,0,1.512,0.047,2.285,0.141l0.844-1.371L136.077,20.844 M117.198,47.844c1.617,0,3.352-0.873,5.203-2.619
				c1.851-1.746,3.211-4.259,4.078-7.541l2.918-10.969c-1.266-0.258-2.333-0.387-3.199-0.387c-2.109,0-3.95,0.58-5.52,1.74
				c-1.57,1.16-3.029,3.247-4.377,6.258c-1.348,3.012-2.021,6.018-2.021,9.018c0,1.594,0.269,2.742,0.809,3.445
				C115.628,47.492,116.331,47.844,117.198,47.844 M138.95,18.19l-3.288,0.697l-2.32,0.492l-0.839,0.178l-0.449,0.73l-0.195,0.316
				c-0.415-0.025-0.826-0.038-1.231-0.038c-3.258,0-6.004,0.513-8.162,1.525c-2.7,1.286-5.277,3.29-7.671,5.96
				c-2.359,2.632-4.268,5.604-5.671,8.835c-1.428,3.285-2.152,6.345-2.152,9.094c0,2.525,0.635,4.637,1.887,6.277
				c1.099,1.454,2.732,2.227,4.718,2.227c1.805,0,3.749-0.647,5.777-1.925c0.849-0.527,1.667-1.088,2.454-1.681
				c0.003,1.385,0.6,2.227,1.101,2.688c0.683,0.632,1.601,0.952,2.728,0.952c1.077,0,2.185-0.207,3.292-0.615
				c1.505-0.545,3.101-1.392,4.731-2.514c0.531-0.365,1.664-1.239,5.348-4.6l1.402-1.279l-1.204-1.467l-1.125-1.371l-1.375-1.676
				l-1.56,1.505c-1.045,1.008-2.137,1.882-3.253,2.604c0.109-0.654,0.273-1.538,0.519-2.73c0.921-4.541,1.912-8.599,2.945-12.066
				l2.638-8.897L138.95,18.19L138.95,18.19z M117.198,45.844c-0.217,0-0.344-0.039-0.522-0.271
				c-0.067-0.087-0.396-0.599-0.396-2.229c0-2.704,0.622-5.462,1.847-8.201c1.199-2.68,2.458-4.519,3.74-5.466
				c1.228-0.908,2.645-1.349,4.331-1.349c0.213,0,0.444,0.01,0.692,0.03l-2.344,8.812c-0.767,2.902-1.95,5.122-3.518,6.6
				C119.59,45.126,118.266,45.844,117.198,45.844L117.198,45.844z"/>
		</g>
		<g>
			<path fill="#8D1E5D" d="M106.156,44.082c-3.094,2.906-5.016,4.359-5.766,4.359c-0.188,0-0.364-0.111-0.527-0.334
				c-0.164-0.223-0.246-0.498-0.246-0.826c0-1.71,1.239-6.727,3.716-15.047c1.519-5.085,2.279-7.968,2.279-8.648
				c0-0.562-0.199-1.007-0.597-1.336c-0.397-0.328-0.971-0.492-1.72-0.492c-1.358,0-3.002,0.545-4.934,1.635
				c-1.931,1.09-4.067,2.924-6.408,5.502L93.5,30.09c2.062-2.016,3.393-3.211,3.99-3.586c0.598-0.375,1.13-0.562,1.6-0.562
				c0.422,0,0.633,0.234,0.633,0.703c0,0.422-0.083,0.902-0.246,1.441c-3.516,11.391-5.273,18.551-5.273,21.48
				c0,0.914,0.24,1.629,0.721,2.145c0.48,0.515,1.13,0.773,1.951,0.773c0.937,0,2.145-0.422,3.621-1.266s3.82-2.777,7.031-5.801
				L106.156,44.082z"/>
			<path fill="#8D1E5D" d="M104.574,12.547c0.469,0.492,1.055,0.738,1.758,0.738c0.891,0,1.693-0.392,2.408-1.178
				c0.715-0.785,1.072-1.693,1.072-2.725c0-0.75-0.234-1.365-0.703-1.846c-0.469-0.48-1.067-0.721-1.793-0.721
				c-0.938,0-1.746,0.369-2.426,1.107c-0.68,0.738-1.02,1.635-1.02,2.689C103.871,11.41,104.104,12.055,104.574,12.547z"/>
		</g>
		<path fill="#FFCCFF" d="M163.727,2c1.006,0,1.796,0.242,2.37,0.726c0.574,0.484,0.86,1.068,0.86,1.752
			c0,0.756-0.281,1.375-0.841,1.859c-0.561,0.484-1.378,0.726-2.452,0.726c-0.701,0-1.694-0.117-2.978-0.352
			c-1.121-0.188-2.16-0.281-3.118-0.281s-1.682,0.198-2.172,0.595c-0.677,0.561-1.29,1.738-1.839,3.535
			c-0.549,1.796-1.442,5.341-2.68,10.636l-3.507,14.73c-1.735,7.383-2.602,11.238-2.602,11.566c0,0.75,0.269,1.125,0.809,1.125
			c0.515,0,1.266-0.304,2.25-0.914c1.946-1.218,3.893-2.777,5.84-4.676l1.195,1.266c-1.828,2.062-3.99,3.943-6.486,5.643
			s-4.553,2.549-6.17,2.549c-0.727,0-1.324-0.276-1.793-0.826c-0.469-0.55-0.703-1.306-0.703-2.268
			c0-1.875,0.726-5.766,2.177-11.672l3.792-15.434c1.381-5.578,2.54-9.316,3.476-11.215c1.452-2.872,3.505-5.102,6.162-6.689
			C157.974,2.794,160.777,2,163.727,2 M163.727,0c-3.302,0-6.477,0.896-9.436,2.665c-2.974,1.777-5.302,4.302-6.921,7.503
			c-1.018,2.064-2.203,5.864-3.632,11.637l-3.793,15.437c-1.503,6.12-2.234,10.094-2.234,12.149c0,1.446,0.397,2.646,1.181,3.565
			c0.852,1,1.998,1.528,3.315,1.528c2.047,0,4.433-0.946,7.295-2.895c2.621-1.784,4.928-3.792,6.857-5.969l1.214-1.37l-1.256-1.33
			l-1.195-1.266l-1.396-1.478l-1.455,1.418c-1.706,1.664-3.425,3.063-5.117,4.165c0.346-1.564,0.985-4.366,2.163-9.377l3.506-14.725
			c1.224-5.237,2.114-8.772,2.646-10.515c0.629-2.059,1.144-2.531,1.201-2.578c0,0,0,0,0,0c0.003,0,0.224-0.136,0.898-0.136
			c0.843,0,1.781,0.085,2.788,0.254c1.387,0.253,2.479,0.379,3.308,0.379c1.562,0,2.827-0.408,3.758-1.211
			c1.004-0.866,1.534-2.033,1.534-3.373c0-1.28-0.543-2.415-1.571-3.281C166.444,0.403,165.213,0,163.727,0L163.727,0z"/>
		<g>
			<path fill="#8D1E5D" d="M163.876,53.414c-3.018,0-5.327-0.651-6.864-1.938c-1.591-1.33-2.397-3.002-2.397-4.968
				c0-1.082,0.354-2,1.05-2.73c0.709-0.742,1.591-1.118,2.622-1.118c0.912,0,1.708,0.308,2.366,0.916
				c0.67,0.621,1.024,1.403,1.024,2.264c0,0.255-0.017,0.588-0.05,0.996c-0.013,0.254-0.02,0.495-0.02,0.691
				c0,0.47,0.196,0.85,0.617,1.197c0.456,0.389,1.109,0.581,1.957,0.581c1.112,0,2.093-0.188,2.916-0.561
				c0.777-0.351,1.367-0.867,1.802-1.578c0.443-0.724,0.658-1.409,0.658-2.093c0-0.665-0.201-1.324-0.614-2.015
				c-0.469-0.783-1.571-2.136-3.276-4.021c-2.598-2.894-3.915-5.752-3.915-8.5c0-2.573,1.042-4.845,3.097-6.755
				c2.034-1.89,4.64-2.848,7.747-2.848c2.288,0,4.109,0.47,5.414,1.398c1.41,1.003,2.125,2.218,2.125,3.61
				c0,0.896-0.354,1.715-1.022,2.368c-0.671,0.655-1.492,0.988-2.439,0.988c-0.629,0-1.194-0.149-1.679-0.444
				c-0.45-0.272-0.969-0.81-1.682-1.742c-0.653-0.866-1.633-1.893-2.616-1.893c-0.691,0-1.294,0.266-1.842,0.814
				c-0.548,0.547-0.814,1.217-0.814,2.048c0,0.805,0.193,1.567,0.59,2.33c0.292,0.562,1.117,1.736,3.392,4.147
				c2.771,2.942,4.175,5.819,4.175,8.551c0,2.769-1.178,5.213-3.502,7.264C170.406,52.391,167.439,53.414,163.876,53.414z"/>
			<path fill="#FFCCFF" d="M172.595,21.934c2.086,0,3.697,0.404,4.834,1.213c1.137,0.809,1.705,1.74,1.705,2.795
				c0,0.633-0.241,1.184-0.721,1.652c-0.48,0.469-1.061,0.703-1.74,0.703c-0.445,0-0.832-0.1-1.16-0.299
				c-0.329-0.199-0.797-0.697-1.406-1.494c-1.148-1.523-2.285-2.285-3.41-2.285c-0.961,0-1.811,0.369-2.549,1.106
				s-1.107,1.656-1.107,2.756c0,0.96,0.234,1.891,0.703,2.792c0.469,0.901,1.652,2.359,3.551,4.372
				c2.602,2.763,3.902,5.384,3.902,7.865c0,2.481-1.055,4.652-3.164,6.514c-2.109,1.861-4.829,2.791-8.156,2.791
				c-2.79,0-4.864-0.568-6.223-1.705c-1.359-1.137-2.039-2.537-2.039-4.201c0-0.82,0.258-1.5,0.773-2.039
				c0.515-0.539,1.148-0.809,1.898-0.809c0.656,0,1.218,0.217,1.688,0.65c0.469,0.434,0.703,0.944,0.703,1.529
				c0,0.234-0.016,0.54-0.047,0.914c-0.016,0.305-0.023,0.562-0.023,0.773c0,0.773,0.327,1.43,0.981,1.969
				c0.631,0.54,1.495,0.809,2.592,0.809c1.261,0,2.37-0.216,3.328-0.649c0.958-0.433,1.705-1.089,2.243-1.966
				c0.537-0.878,0.806-1.75,0.806-2.616c0-0.843-0.252-1.686-0.756-2.528c-0.504-0.843-1.635-2.235-3.393-4.179
				c-2.438-2.715-3.656-5.325-3.656-7.83c0-2.294,0.926-4.302,2.777-6.022C167.379,22.794,169.735,21.934,172.595,21.934
				 M172.595,19.934c-3.368,0-6.203,1.048-8.428,3.116c-2.267,2.106-3.416,4.625-3.416,7.487c0,3.002,1.402,6.086,4.168,9.166
				c2.074,2.293,2.865,3.369,3.165,3.869c0.317,0.531,0.472,1.022,0.472,1.501c0,0.495-0.167,1.009-0.512,1.572
				c-0.326,0.533-0.771,0.922-1.36,1.188c-0.693,0.313-1.535,0.472-2.504,0.472c-0.415,0-0.975-0.057-1.292-0.329
				c-0.281-0.232-0.281-0.347-0.281-0.449c0-0.176,0.007-0.39,0.02-0.641c0.034-0.425,0.051-0.767,0.051-1.046
				c0-1.146-0.465-2.182-1.344-2.997c-0.838-0.774-1.891-1.183-3.046-1.183c-1.296,0-2.452,0.493-3.344,1.427
				c-0.869,0.909-1.328,2.092-1.328,3.421c0,2.245,0.953,4.228,2.756,5.735c1.722,1.441,4.247,2.17,7.505,2.17
				c3.814,0,7.004-1.106,9.479-3.291c2.548-2.249,3.841-4.945,3.841-8.014c0-2.996-1.496-6.103-4.446-9.236
				c-2.312-2.451-3.018-3.51-3.232-3.923c-0.322-0.617-0.478-1.228-0.478-1.869c0-0.567,0.161-0.981,0.521-1.341
				c0.463-0.462,0.85-0.521,1.136-0.521c0.334,0,0.985,0.391,1.813,1.489c0.812,1.061,1.397,1.656,1.968,2.001
				c0.641,0.389,1.381,0.587,2.195,0.587c1.2,0,2.285-0.44,3.138-1.272c0.866-0.845,1.323-1.912,1.323-3.083
				c0-1.192-0.442-2.928-2.546-4.425C177.11,20.466,175.094,19.934,172.595,19.934L172.595,19.934z"/>
		</g>
		<path fill="#8D1E5D" d="M166.096,2.726C165.523,2.242,164.733,2,163.727,2c-2.95,0-5.753,0.794-8.41,2.381
			c-2.656,1.587-4.71,3.817-6.162,6.689c-0.937,1.898-2.095,5.637-3.476,11.215l-3.792,15.434
			c-1.451,5.906-2.177,9.797-2.177,11.672c0,0.961,0.234,1.717,0.703,2.268c0.469,0.55,1.066,0.826,1.793,0.826
			c1.617,0,3.674-0.85,6.17-2.549s4.658-3.58,6.486-5.643l-1.195-1.266c-1.947,1.898-3.894,3.458-5.84,4.676
			c-0.985,0.61-1.735,0.914-2.25,0.914c-0.54,0-0.809-0.375-0.809-1.125c0-0.328,0.867-4.184,2.602-11.566l3.507-14.73
			c1.238-5.295,2.131-8.84,2.68-10.636c0.549-1.796,1.162-2.974,1.839-3.535c0.491-0.396,1.215-0.595,2.172-0.595
			s1.997,0.094,3.118,0.281c1.284,0.234,2.277,0.352,2.978,0.352c1.074,0,1.891-0.242,2.452-0.726
			c0.56-0.483,0.841-1.103,0.841-1.859C166.957,3.793,166.67,3.209,166.096,2.726z"/>
		<g>
			<path fill="#8D1E5D" d="M222.161,70.921c-1.781,0-3.118-0.345-4.088-1.054c-1.312-0.96-1.588-2.088-1.588-2.864
				c0-0.998,0.441-1.891,1.276-2.581c0.791-0.654,1.833-0.985,3.099-0.985c0.877,0,2.017,0.157,3.484,0.48
				c1.744,0.388,2.49,0.469,2.809,0.469c1.201,0,2.525-0.535,3.936-1.592c2.055-1.544,3.708-3.413,4.914-5.555
				c1.186-2.109,1.787-4.261,1.787-6.395c0-3.172-0.472-7.05-1.403-11.527c-0.916-4.407-2.214-7.801-3.857-10.087
				c-0.673-0.963-1.332-1.446-1.966-1.446c-0.639,0-1.909,0.37-4.335,2.13l-0.834,0.605l-2.27-3.333l3.434-2.32
				c2.595-1.778,4.387-2.896,5.473-3.414c0.716-0.344,1.406-0.519,2.048-0.519c0.811,0,1.548,0.411,2.19,1.222
				c2.128,2.685,3.936,6.332,5.372,10.839c1.236,3.881,1.945,7.71,2.116,11.406c2.598-5.398,3.911-9.821,3.911-13.181
				c0-0.799-0.189-1.907-0.563-3.292c-0.449-1.75-0.667-2.983-0.667-3.778c0-0.947,0.314-1.75,0.935-2.386
				c0.618-0.634,1.431-0.97,2.351-0.97c1.119,0,2.076,0.458,2.768,1.326c0.647,0.812,0.975,1.932,0.975,3.331
				c0,3.109-0.713,7.01-2.118,11.596c-1.4,4.565-3.624,9.531-6.609,14.758c-2.994,5.24-5.777,9.199-8.272,11.767
				c-2.521,2.593-5.006,4.483-7.388,5.619C226.667,70.338,224.34,70.921,222.161,70.921z"/>
			<path fill="#FFCCFF" d="M249.723,21.793c0.82,0,1.481,0.316,1.986,0.949c0.504,0.633,0.756,1.535,0.756,2.707
				c0,3.023-0.691,6.791-2.074,11.303c-1.384,4.512-3.557,9.364-6.521,14.555c-2.966,5.191-5.673,9.046-8.121,11.566
				c-2.449,2.52-4.816,4.324-7.102,5.414s-4.447,1.635-6.486,1.635c-1.547,0-2.713-0.287-3.498-0.861s-1.178-1.26-1.178-2.057
				c0-0.703,0.305-1.307,0.914-1.811s1.429-0.756,2.461-0.756c0.796,0,1.886,0.152,3.27,0.457c1.477,0.328,2.483,0.492,3.023,0.492
				c1.429,0,2.94-0.597,4.535-1.791c2.18-1.639,3.907-3.595,5.186-5.865c1.277-2.271,1.916-4.566,1.916-6.885
				c0-3.255-0.475-7.166-1.424-11.731c-0.949-4.566-2.291-8.056-4.025-10.467c-0.867-1.241-1.793-1.862-2.777-1.862
				c-1.148,0-2.79,0.773-4.922,2.32l-1.125-1.652l2.602-1.758c2.531-1.734,4.312-2.848,5.344-3.34
				c0.585-0.281,1.125-0.422,1.617-0.422s0.961,0.281,1.406,0.843c2.062,2.6,3.797,6.107,5.203,10.521
				c1.406,4.415,2.109,8.695,2.109,12.84c0,0.539-0.023,1.358-0.07,2.459c3.96-7.293,5.941-13.085,5.941-17.377
				c0-0.891-0.199-2.075-0.598-3.553c-0.422-1.642-0.633-2.814-0.633-3.518c0-0.68,0.216-1.242,0.65-1.688
				C248.522,22.016,249.067,21.793,249.723,21.793 M249.723,19.793c-1.196,0-2.257,0.44-3.067,1.273
				c-0.797,0.816-1.218,1.883-1.218,3.083c0,0.893,0.221,2.169,0.695,4.016c0.443,1.643,0.535,2.566,0.535,3.055
				c0,2.479-0.762,5.59-2.271,9.296c-0.36-2.57-0.963-5.187-1.804-7.825c-1.473-4.623-3.337-8.377-5.541-11.157
				c-1.049-1.323-2.195-1.601-2.974-1.601c-0.793,0-1.629,0.208-2.483,0.62c-1.128,0.538-2.964,1.681-5.608,3.492l-2.591,1.75
				l-1.663,1.124l1.13,1.659l1.125,1.652l1.16,1.704l1.668-1.21c2.543-1.846,3.567-1.939,3.747-1.939c0.2,0,0.618,0.264,1.138,1.007
				c1.577,2.194,2.819,5.459,3.707,9.729c0.917,4.41,1.382,8.22,1.382,11.324c0,1.96-0.559,3.946-1.659,5.904
				c-1.137,2.02-2.7,3.785-4.645,5.247c-1.229,0.921-2.353,1.39-3.333,1.39c-0.139,0-0.733-0.032-2.59-0.444
				c-1.543-0.34-2.753-0.505-3.703-0.505c-1.504,0-2.761,0.408-3.735,1.215c-1.072,0.887-1.64,2.046-1.64,3.352
				c0,1.009,0.347,2.464,1.997,3.671c1.147,0.839,2.678,1.247,4.679,1.247c2.33,0,4.802-0.615,7.348-1.829
				c2.488-1.188,5.071-3.147,7.674-5.825c2.555-2.629,5.389-6.655,8.424-11.968c3.022-5.292,5.275-10.325,6.697-14.96
				c1.435-4.681,2.162-8.681,2.162-11.889c0-1.63-0.4-2.96-1.191-3.953C252.384,20.381,251.157,19.793,249.723,19.793
				L249.723,19.793z"/>
		</g>
		<g>
			<path fill="#8D1E5D" d="M205.395,53.519c-2.418,0-4.393-0.735-5.868-2.185c-1.482-1.455-2.233-3.351-2.233-5.635
				c0-1.705,0.318-3.983,0.973-6.964l4.149-18.601c1.028-4.639,2.351-8.243,3.931-10.71c1.604-2.505,3.743-4.532,6.357-6.025
				c2.626-1.499,5.17-2.258,7.562-2.258c1.569,0,2.724,0.288,3.528,0.88c0.876,0.645,1.339,1.562,1.339,2.651
				c0,0.997-0.416,1.87-1.203,2.526c-0.744,0.621-1.764,0.935-3.032,0.935c-0.843,0-2.214-0.178-4.191-0.544
				c-0.789-0.153-1.482-0.229-2.069-0.229c-0.507,0-1.264,0.145-1.982,1.396c-0.329,0.601-0.972,2.358-2.109,7.218l-2.097,8.998
				c1.137-0.979,2.27-1.767,3.387-2.358c1.979-1.045,3.773-1.575,5.337-1.575c1.965,0,3.559,0.797,4.737,2.369
				c1.128,1.505,1.677,3.645,1.677,6.542c0,3.98-0.945,7.925-2.81,11.726c-1.869,3.812-4.228,6.764-7.009,8.772
				C210.946,52.485,208.128,53.519,205.395,53.519z M213.622,26.941c-0.614,0-1.71,0.317-3.438,1.827
				c-1.455,1.272-2.872,3.61-4.213,6.95c-1.352,3.369-2.037,6.715-2.037,9.946c0,1.01,0.308,1.826,0.939,2.495
				c0.617,0.653,1.305,0.97,2.104,0.97c2.178,0,4.219-1.889,6.065-5.614c1.96-3.955,2.954-7.939,2.954-11.843
				c0-1.643-0.335-2.984-0.995-3.984C214.655,27.174,214.227,26.941,213.622,26.941z"/>
			<path fill="#FFCCFF" d="M220.266,2.141c1.336,0,2.314,0.229,2.936,0.686s0.932,1.072,0.932,1.846
				c0,0.703-0.281,1.289-0.844,1.758c-0.562,0.469-1.36,0.703-2.392,0.703c-0.774,0-2.11-0.176-4.01-0.527
				c-0.845-0.164-1.595-0.246-2.251-0.246c-1.173,0-2.123,0.633-2.85,1.898c-0.539,0.984-1.277,3.48-2.216,7.488l-2.876,12.34
				c1.898-2.086,3.768-3.615,5.607-4.588c1.84-0.972,3.463-1.459,4.869-1.459c1.641,0,2.953,0.656,3.938,1.969
				c0.984,1.313,1.477,3.293,1.477,5.941c0,3.844-0.902,7.606-2.707,11.285c-1.805,3.68-4.037,6.481-6.697,8.402
				s-5.256,2.882-7.787,2.882c-2.156,0-3.879-0.632-5.168-1.898s-1.934-2.906-1.934-4.922c0-1.617,0.316-3.867,0.949-6.75
				l4.148-18.598c1.008-4.547,2.273-8.01,3.797-10.389c1.523-2.378,3.527-4.277,6.012-5.695
				C215.684,2.85,218.04,2.141,220.266,2.141 M206.977,50.129c2.602,0,4.922-2.057,6.961-6.17s3.059-8.209,3.059-12.287
				c0-1.851-0.387-3.363-1.16-4.535c-0.539-0.796-1.277-1.195-2.215-1.195c-1.148,0-2.514,0.691-4.096,2.074
				c-1.582,1.383-3.076,3.827-4.482,7.33c-1.406,3.504-2.109,6.943-2.109,10.318c0,1.266,0.404,2.326,1.213,3.182
				C204.956,49.702,205.899,50.129,206.977,50.129 M220.266,0.141c-2.568,0-5.279,0.804-8.058,2.39
				c-2.757,1.574-5.013,3.711-6.705,6.354c-1.666,2.603-2.996,6.212-4.064,11.035l-4.148,18.595
				c-0.671,3.059-0.997,5.407-0.997,7.186c0,2.563,0.852,4.699,2.532,6.349c1.67,1.64,3.88,2.471,6.569,2.471
				c2.948,0,5.962-1.098,8.958-3.261c2.916-2.106,5.38-5.182,7.322-9.143c1.932-3.938,2.911-8.032,2.911-12.166
				c0-3.121-0.613-5.457-1.876-7.141c-1.359-1.812-3.274-2.769-5.538-2.769c-1.752,0-3.65,0.553-5.804,1.691
				c-0.438,0.231-0.879,0.492-1.319,0.78l1.471-6.31c1.214-5.186,1.818-6.61,2.021-6.982c0.494-0.859,0.9-0.859,1.096-0.859
				c0.523,0,1.152,0.07,1.871,0.209c2.083,0.386,3.473,0.564,4.39,0.564c1.509,0,2.744-0.393,3.673-1.167
				c1.021-0.852,1.562-1.991,1.562-3.293c0-1.4-0.62-2.628-1.746-3.457C223.404,0.492,222.056,0.141,220.266,0.141L220.266,0.141z
				 M206.977,48.129c-0.352,0-0.826-0.075-1.376-0.657c-0.455-0.481-0.667-1.056-0.667-1.808c0-3.103,0.661-6.324,1.966-9.573
				c1.281-3.192,2.607-5.402,3.942-6.57c1.631-1.426,2.487-1.58,2.779-1.58c0.243,0,0.374,0.044,0.559,0.316
				c0.537,0.814,0.816,1.97,0.816,3.414c0,3.748-0.959,7.583-2.851,11.399C211.002,45.378,209.177,48.129,206.977,48.129
				L206.977,48.129z"/>
		</g>
		<g>
			<path fill="#8D1E5D" d="M272.07,62.167c-2.548,0-4.648-0.598-6.245-1.777c-1.69-1.249-2.547-2.69-2.547-4.285
				c0-0.848,0.305-1.6,0.907-2.234c0.607-0.642,1.356-0.98,2.167-0.98c1.078,0,2.185,0.59,3.291,1.752
				c1.437,1.491,2.229,2.051,2.641,2.256c0.84,0.42,1.588,0.633,2.225,0.633c0.66,0,1.202-0.136,1.656-0.414
				c0.861-0.522,1.632-1.368,2.294-2.517c0.488-0.848,1.676-3.758,4.554-12.806c1.957-6.107,3.882-12.534,5.721-19.104l2.711-9.479
				l-0.419-0.018c-3.449,0.001-6.361,0.84-8.611,2.496c-2.156,1.585-3.249,3.224-3.249,4.872c0,0.493,0.258,1.14,0.746,1.871
				c0.69,1.036,1.012,1.849,1.012,2.559c0,0.881-0.329,1.658-0.979,2.307c-0.64,0.64-1.45,0.979-2.342,0.979
				c-1.139,0-2.117-0.519-2.83-1.5c-0.661-0.908-0.982-2.145-0.982-3.78c0-2.852,1.019-5.496,3.028-7.858
				c1.975-2.321,4.662-4.035,7.986-5.094c2.226-0.716,5.46-1.065,9.887-1.065c0.609,0,2.215,0.012,4.817,0.035l1.532,0.014
				l-0.629,1.397c-1.685,3.735-3.5,9.022-5.398,15.712l-5.238,18.312c-1.705,6.015-4.14,10.504-7.235,13.339
				C279.368,60.694,275.845,62.167,272.07,62.167z"/>
			<path fill="#FFCCFF" d="M294.691,9.98c0.608,0,2.211,0.012,4.809,0.035c-1.711,3.796-3.527,9.079-5.448,15.85l-5.238,18.31
				c-1.662,5.864-3.979,10.156-6.949,12.876c-2.996,2.745-6.261,4.116-9.794,4.116c-2.34,0-4.224-0.527-5.651-1.582
				s-2.141-2.215-2.141-3.48c0-0.586,0.211-1.102,0.633-1.547s0.901-0.668,1.441-0.668c0.796,0,1.652,0.48,2.566,1.441
				c1.242,1.289,2.215,2.109,2.918,2.461c0.984,0.492,1.875,0.738,2.672,0.738c0.844,0,1.569-0.188,2.18-0.562
				c1.007-0.61,1.886-1.566,2.637-2.868c0.75-1.302,2.297-5.636,4.641-13.002c1.969-6.145,3.879-12.523,5.73-19.137l3.059-10.695
				l-1.688-0.07c-3.727,0-6.809,0.896-9.246,2.689c-2.438,1.793-3.656,3.686-3.656,5.678c0,0.703,0.304,1.512,0.914,2.426
				c0.562,0.844,0.844,1.512,0.844,2.004c0,0.61-0.229,1.143-0.686,1.6s-1.002,0.686-1.635,0.686c-0.821,0-1.494-0.362-2.021-1.088
				c-0.527-0.725-0.791-1.789-0.791-3.192c0-2.62,0.93-5.023,2.79-7.21c1.86-2.187,4.37-3.783,7.528-4.789
				C287.215,10.32,290.409,9.98,294.691,9.98 M294.691,7.98c-4.532,0-7.867,0.364-10.195,1.114c-3.5,1.115-6.341,2.931-8.439,5.397
				c-2.168,2.548-3.267,5.41-3.267,8.506c0,1.854,0.384,3.284,1.174,4.369c0.908,1.25,2.167,1.911,3.639,1.911
				c1.163,0,2.217-0.439,3.049-1.271c0.832-0.832,1.271-1.874,1.271-3.014c0-0.917-0.375-1.906-1.18-3.113
				c-0.536-0.804-0.578-1.211-0.578-1.316c0-1.312,0.956-2.68,2.841-4.066c1.871-1.376,4.26-2.141,7.11-2.278l-2.343,8.193
				c-1.839,6.569-3.76,12.983-5.712,19.077c-3.004,9.439-4.089,11.955-4.47,12.615c-0.576,0.999-1.229,1.725-1.94,2.156
				c-0.302,0.186-0.672,0.272-1.143,0.272c-0.473,0-1.088-0.183-1.777-0.527c-0.225-0.112-0.906-0.538-2.372-2.06
				c-1.293-1.359-2.645-2.054-4.007-2.054c-1.092,0-2.092,0.447-2.894,1.293c-0.772,0.815-1.181,1.825-1.181,2.922
				c0,1.93,0.993,3.642,2.952,5.089c1.772,1.31,4.074,1.974,6.84,1.974c4.034,0,7.783-1.562,11.146-4.642
				c3.234-2.962,5.765-7.607,7.521-13.806l5.237-18.305c1.886-6.647,3.685-11.887,5.349-15.579l1.26-2.794l-3.065-0.027
				C296.91,7.992,295.301,7.98,294.691,7.98L294.691,7.98z"/>
		</g>
		<path fill="#FFCCFF" d="M308.177,21.934c0.562,0,1.02,0.206,1.371,0.616c0.352,0.411,0.527,1.05,0.527,1.918
			c0,1.619-0.844,5.597-2.531,11.934c-1.5,5.703-2.25,8.954-2.25,9.752c0,0.493,0.157,0.915,0.474,1.267s0.662,0.528,1.037,0.528
			c1.311,0,3.172-1.084,5.584-3.252c2.412-2.167,3.993-4.635,4.742-7.4l3.829-14.449h5.006l-3.305,12.287
			c-1.946,7.136-2.918,11.196-2.918,12.182c0,0.445,0.105,0.786,0.316,1.02c0.211,0.234,0.444,0.352,0.703,0.352
			c0.398,0,0.866-0.176,1.406-0.527c0.773-0.539,2.237-1.898,4.395-4.078l1.16,1.301c-4.711,4.899-8.18,7.347-10.406,7.347
			c-0.751,0-1.389-0.287-1.916-0.861s-0.791-1.389-0.791-2.443c0-1.218,0.254-2.848,0.761-4.887
			c-2.084,2.391-4.66,4.488-7.728,6.293c-2.038,1.195-3.807,1.792-5.305,1.792c-0.819,0-1.464-0.27-1.933-0.809
			c-0.469-0.54-0.702-1.396-0.702-2.57c0-0.915,0.105-1.901,0.316-2.957c0.304-1.479,1.077-4.447,2.32-8.907
			c1.569-5.656,2.355-9.047,2.355-10.174c0-0.657-0.234-0.985-0.703-0.985c-0.422,0-0.997,0.217-1.723,0.65
			c-0.727,0.434-1.969,1.482-3.727,3.146l-1.547-1.23c3.141-2.812,5.537-4.658,7.189-5.537S307.169,21.934,308.177,21.934
			 M308.177,19.934c-1.353,0-2.966,0.508-4.93,1.553c-1.812,0.964-4.293,2.865-7.584,5.813l-1.765,1.58l1.854,1.475l1.547,1.23
			l1.359,1.081l1.261-1.193c1.119-1.06,1.896-1.742,2.432-2.181c-0.308,1.423-0.881,3.749-1.937,7.556
			c-1.268,4.544-2.037,7.501-2.353,9.039c-0.238,1.19-0.357,2.317-0.357,3.359c0,1.688,0.39,2.958,1.192,3.882
			c0.852,0.979,2.042,1.497,3.442,1.497c1.879,0,3.944-0.676,6.316-2.067c1.415-0.833,2.739-1.731,3.967-2.691
			c0.077,1.367,0.515,2.495,1.307,3.356c0.905,0.986,2.077,1.508,3.389,1.508c2.86,0,6.625-2.53,11.848-7.961l1.284-1.335
			l-1.233-1.382l-1.16-1.301l-1.416-1.589l-1.498,1.513c-1.482,1.498-2.464,2.43-3.109,3.009c0.334-1.553,1.047-4.482,2.559-10.023
			l3.307-12.294l0.678-2.52h-2.609h-5.006h-1.539l-0.395,1.488l-3.829,14.449c-0.64,2.364-2.036,4.529-4.146,6.425
			c-1.948,1.751-3.105,2.386-3.715,2.614c0.119-0.758,0.561-2.901,2.142-8.913c2.327-8.741,2.597-11.288,2.597-12.443
			c0-1.354-0.339-2.437-1.007-3.218C310.331,20.389,309.332,19.934,308.177,19.934L308.177,19.934z"/>
		<g>
			<path fill="#8D1E5D" d="M346.168,53.625c-0.814,0-1.501-0.246-2.04-0.73c-0.71-0.639-0.858-1.34-0.858-1.816
				c0-0.502,0.135-1.214,0.424-2.24l0.15-0.524c-1.696,1.607-3.179,2.771-4.489,3.524c-2.021,1.162-3.892,1.751-5.562,1.751
				c-1.562,0-2.881-0.681-3.92-2.024c-0.979-1.266-1.475-3.088-1.475-5.417c0-3.481,1.192-7.504,3.543-11.958
				c2.346-4.443,5.01-7.789,7.918-9.945c2.964-2.198,5.749-3.312,8.277-3.312c0.399,0,0.915,0.042,1.565,0.126
				c1.048-4.213,2.037-7.261,3.018-9.298c1.056-2.193,2.439-4.115,4.113-5.712c1.68-1.602,3.625-2.857,5.782-3.73
				c2.16-0.875,4.22-1.319,6.123-1.319c1.183,0,2.161,0.332,2.908,0.986c0.775,0.678,1.186,1.583,1.186,2.616
				c0,1.009-0.385,1.882-1.113,2.525c-0.702,0.621-1.637,0.936-2.776,0.936c-0.643,0-1.762-0.119-3.422-0.362
				c-1.925-0.282-2.766-0.341-3.132-0.341c-0.592,0-1.096,0.174-1.539,0.533c-0.266,0.214-0.807,0.86-1.461,2.789
				c-0.254,0.717-0.895,3.022-2.53,9.999l-4.974,21.237c-0.702,3.017-0.85,4.257-0.85,4.766c0,0.166,0.017,0.271,0.031,0.333
				c0.225-0.008,0.525-0.081,0.988-0.332c0.735-0.411,2.255-1.507,4.505-3.251l0.81-0.627l2.147,2.915l-0.716,0.604
				c-3.217,2.713-5.555,4.473-7.146,5.378C349.371,52.996,347.577,53.625,346.168,53.625z M345.747,26.414
				c-1.344,0-2.643,0.53-3.971,1.622c-1.359,1.117-2.721,3.391-4.046,6.759c-1.342,3.411-2.022,6.403-2.022,8.894
				c0,0.962,0.239,1.713,0.73,2.296c0.599,0.707,1.104,0.789,1.434,0.789c0.774,0,1.72-0.379,2.81-1.127
				c1.661-1.188,3.008-2.669,3.985-4.388c0.394-0.73,1.15-2.792,2.462-8.362l1.391-6.085
				C346.947,26.489,346.148,26.414,345.747,26.414z"/>
			<path fill="#FFCCFF" d="M368.739,2c0.938,0,1.688,0.246,2.25,0.738s0.844,1.113,0.844,1.863c0,0.727-0.258,1.318-0.775,1.775
				c-0.517,0.457-1.221,0.686-2.114,0.686c-0.587,0-1.68-0.117-3.276-0.352c-1.598-0.234-2.691-0.352-3.277-0.352
				c-0.822,0-1.545,0.251-2.168,0.755c-0.623,0.503-1.216,1.584-1.779,3.245c-0.373,1.055-1.227,4.419-2.557,10.092l-4.974,21.237
				c-0.584,2.509-0.876,4.173-0.876,4.994c0,0.892,0.34,1.337,1.02,1.337c0.422,0,0.914-0.152,1.477-0.458
				c0.797-0.445,2.344-1.559,4.641-3.339l0.984,1.336c-3.141,2.649-5.473,4.407-6.996,5.273c-2.109,1.195-3.773,1.792-4.992,1.792
				c-0.562,0-1.02-0.158-1.371-0.474s-0.527-0.673-0.527-1.072c0-0.398,0.129-1.055,0.387-1.969l1.23-4.296
				c-2.812,3.026-5.156,5.079-7.031,6.158c-1.875,1.078-3.562,1.618-5.062,1.618c-1.242,0-2.285-0.545-3.129-1.636
				c-0.844-1.091-1.266-2.693-1.266-4.805c0-3.332,1.143-7.163,3.428-11.492s4.828-7.532,7.629-9.608
				c2.801-2.077,5.361-3.115,7.682-3.115c0.516,0,1.289,0.083,2.32,0.246c1.102-4.562,2.156-7.891,3.164-9.984
				s2.309-3.901,3.902-5.422c1.594-1.521,3.416-2.697,5.467-3.527C365.042,2.415,366.958,2,368.739,2 M337.872,47.773
				c0.984,0,2.109-0.434,3.375-1.303c1.805-1.291,3.234-2.864,4.289-4.718c0.633-1.173,1.488-4.049,2.566-8.627l1.617-7.078
				c-1.875-0.422-3.199-0.634-3.973-0.634c-1.57,0-3.105,0.616-4.605,1.849c-1.5,1.232-2.947,3.621-4.342,7.165
				c-1.395,3.545-2.092,6.631-2.092,9.26c0,1.198,0.322,2.178,0.967,2.941C336.319,47.392,337.051,47.773,337.872,47.773 M368.739,0
				c-2.032,0-4.219,0.468-6.499,1.393c-2.274,0.92-4.325,2.244-6.097,3.933c-1.761,1.681-3.216,3.7-4.323,6.002
				c-0.942,1.958-1.887,4.796-2.874,8.644c-0.305-0.025-0.574-0.038-0.809-0.038c-2.748,0-5.732,1.181-8.873,3.509
				c-3.029,2.246-5.791,5.705-8.206,10.281c-2.428,4.6-3.659,8.78-3.659,12.425c0,2.555,0.566,4.583,1.684,6.028
				c1.222,1.579,2.851,2.413,4.711,2.413c1.847,0,3.886-0.634,6.06-1.884c0.753-0.433,1.557-0.992,2.417-1.681
				c0,0.018,0,0.036,0,0.054c0,0.679,0.206,1.674,1.189,2.559c0.718,0.646,1.654,0.987,2.709,0.987c1.586,0,3.541-0.671,5.979-2.053
				c1.648-0.938,4.035-2.731,7.299-5.484l1.432-1.208l-1.11-1.508l-0.984-1.336l-1.216-1.65l-1.62,1.256
				c-1.943,1.507-3.09,2.333-3.767,2.784c0.115-0.698,0.32-1.74,0.68-3.284l4.973-21.235c1.625-6.932,2.254-9.199,2.495-9.881
				c0.659-1.944,1.13-2.34,1.149-2.356c0.267-0.215,0.548-0.311,0.912-0.311c0.272,0,1.023,0.043,2.987,0.331
				c1.732,0.254,2.865,0.373,3.566,0.373c1.392,0,2.549-0.399,3.439-1.188c0.948-0.837,1.45-1.97,1.45-3.273
				c0-1.33-0.528-2.495-1.526-3.369C371.371,0.415,370.17,0,368.739,0L368.739,0z M337.872,45.773c-0.083,0-0.302,0-0.67-0.435
				c-0.332-0.394-0.494-0.934-0.494-1.65c0-2.365,0.657-5.234,1.953-8.528c1.571-3.995,2.907-5.659,3.75-6.352
				c1.142-0.938,2.232-1.395,3.336-1.395c0.223,0,0.68,0.031,1.566,0.185l-1.161,5.081c-1.351,5.738-2.069,7.553-2.377,8.123
				c-0.884,1.553-2.133,2.926-3.692,4.041C338.909,45.65,338.192,45.773,337.872,45.773L337.872,45.773z"/>
		</g>
		<path fill="#8D1E5D" d="M326.564,44.082c-2.157,2.18-3.621,3.539-4.395,4.078c-0.54,0.352-1.008,0.527-1.406,0.527
			c-0.259,0-0.492-0.117-0.703-0.352c-0.211-0.234-0.316-0.574-0.316-1.02c0-0.985,0.972-5.046,2.918-12.182l3.305-12.287h-5.006
			l-3.829,14.449c-0.749,2.766-2.33,5.233-4.742,7.4c-2.412,2.168-4.273,3.252-5.584,3.252c-0.375,0-0.721-0.176-1.037-0.528
			s-0.474-0.774-0.474-1.267c0-0.798,0.75-4.049,2.25-9.752c1.688-6.337,2.531-10.315,2.531-11.934c0-0.868-0.176-1.507-0.527-1.918
			c-0.352-0.411-0.809-0.616-1.371-0.616c-1.008,0-2.338,0.439-3.99,1.318s-4.049,2.725-7.189,5.537l1.547,1.23
			c1.758-1.664,3-2.712,3.727-3.146c0.726-0.434,1.301-0.65,1.723-0.65c0.469,0,0.703,0.329,0.703,0.985
			c0,1.127-0.786,4.518-2.355,10.174c-1.243,4.459-2.017,7.428-2.32,8.907c-0.211,1.056-0.316,2.042-0.316,2.957
			c0,1.173,0.233,2.03,0.702,2.57c0.469,0.539,1.113,0.809,1.933,0.809c1.498,0,3.267-0.597,5.305-1.792
			c3.067-1.805,5.644-3.902,7.728-6.293c-0.507,2.039-0.761,3.668-0.761,4.887c0,1.055,0.264,1.869,0.791,2.443
			s1.165,0.861,1.916,0.861c2.227,0,5.695-2.448,10.406-7.347L326.564,44.082z"/>
		<g>
			<path fill="#8D1E5D" d="M365.623,53.414c-1.979,0-3.528-0.696-4.603-2.071c-1.029-1.318-1.53-3.291-1.53-6.03
				c0-5.179,1.587-10.394,4.718-15.5c3.597-5.937,8.013-8.95,13.122-8.95c1.92,0,3.435,0.512,4.502,1.521
				c1.082,1.025,1.631,2.422,1.631,4.154c0,1.729-0.595,3.438-1.769,5.081c-1.147,1.607-3.1,3.206-5.968,4.887
				c-1.354,0.771-4.075,2.082-8.319,4.008c-0.147,1.019-0.222,2.004-0.222,2.934c0,1.866,0.357,2.589,0.57,2.854
				c0.211,0.262,0.598,0.611,1.523,0.611c0.81,0,1.73-0.24,2.739-0.714c1.479-0.694,3.702-2.149,6.611-4.325l0.8-0.598l2.293,3.058
				l-0.645,0.613C375.087,50.645,370.032,53.414,365.623,53.414z M374.517,25.781c-0.639,0-1.263,0.25-1.907,0.766
				c-0.969,0.762-1.801,1.954-2.481,3.549c-0.784,1.875-1.401,3.797-1.842,5.732c2.775-1.389,4.933-2.864,6.429-4.397
				c1.091-1.15,1.649-2.279,1.649-3.345c0-0.763-0.177-1.334-0.541-1.747C375.488,25.958,375.073,25.781,374.517,25.781z"/>
			<path fill="#FFCCFF" d="M377.33,21.863c1.664,0,2.936,0.417,3.814,1.248c0.879,0.832,1.318,1.975,1.318,3.428
				c0,1.524-0.527,3.023-1.582,4.5s-2.941,3.012-5.66,4.605c-1.359,0.773-4.267,2.168-8.719,4.184
				c-0.211,1.266-0.316,2.473-0.316,3.621c0,1.665,0.264,2.825,0.791,3.48c0.527,0.656,1.295,0.984,2.303,0.984
				c0.961,0,2.016-0.269,3.164-0.809c1.547-0.726,3.809-2.203,6.785-4.43l1.16,1.547c-5.742,5.461-10.665,8.191-14.766,8.191
				c-1.665,0-2.936-0.562-3.814-1.688s-1.318-2.93-1.318-5.414c0-5.015,1.523-10.007,4.57-14.977
				C368.482,24.688,372.572,21.863,377.33,21.863 M366.923,37.578c3.773-1.688,6.609-3.503,8.508-5.449
				c1.289-1.359,1.934-2.707,1.934-4.043c0-1.007-0.264-1.811-0.791-2.408s-1.213-0.896-2.057-0.896
				c-0.867,0-1.711,0.329-2.531,0.984c-1.103,0.867-2.027,2.18-2.777,3.938C368.13,32.282,367.368,34.906,366.923,37.578
				 M377.33,19.863c-5.483,0-10.187,3.175-13.98,9.437c-3.223,5.256-4.859,10.646-4.859,16.013c0,2.971,0.57,5.145,1.742,6.646
				c0.876,1.121,2.521,2.456,5.391,2.456c4.679,0,9.959-2.859,16.144-8.742l1.289-1.226l-1.067-1.423l-1.16-1.547l-1.198-1.598
				l-1.6,1.197c-2.854,2.136-5.02,3.556-6.437,4.221c-0.875,0.411-1.653,0.619-2.314,0.619c-0.553,0-0.682-0.16-0.744-0.237
				c-0.004-0.005-0.35-0.456-0.35-2.228c0-0.718,0.047-1.473,0.141-2.253c3.984-1.815,6.568-3.065,7.884-3.813
				c3.014-1.767,5.067-3.458,6.299-5.181c1.297-1.816,1.954-3.721,1.954-5.663c0-2.018-0.654-3.659-1.943-4.88
				C381.259,20.467,379.514,19.863,377.33,19.863L377.33,19.863z M369.841,33.853c0.343-1.137,0.747-2.265,1.212-3.378
				c0.608-1.425,1.34-2.485,2.169-3.137c0.473-0.377,0.892-0.556,1.295-0.556c0.336,0,0.451,0.1,0.557,0.22
				c0.193,0.219,0.291,0.583,0.291,1.085c0,0.801-0.466,1.698-1.385,2.667C372.951,31.808,371.564,32.846,369.841,33.853
				L369.841,33.853z"/>
		</g>
	</g>
</g>
<g id="Layer_2">
</g>
</svg>
